<svg aria-hidden="true" style="position: absolute; width: 0; height: 0; overflow: hidden;" version="1.1" xmlns="http://www.w3.org/2000/svg" xmlns:xlink="http://www.w3.org/1999/xlink">
<defs>
<symbol id="logo" viewBox="0 0 33 32">
<path style="fill: var(--color1, #6d8434)" d="M32 16c0 8.837-7.163 16-16 16s-16-7.163-16-16c0-8.837 7.163-16 16-16s16 7.163 16 16z"></path>
<path style="fill: var(--color2, #e8e8e2)" d="M16.847 9.499c-0.265-0.402-0.62-0.736-1.038-0.975-1.149-0.659-2.629-0.543-3.995 0.222-2.536 1.421-4.197 4.092-4.197 7.254 0 4.221 3.055 7.629 7.045 8.274 0.436 0.070 0.882 0.107 1.336 0.107 1.107 0.004 2.204-0.212 3.227-0.636s1.951-1.047 2.731-1.833 1.396-1.719 1.812-2.745c0.416-1.026 0.624-2.125 0.611-3.232-0.017-1.472-0.608-3.278-1.541-4.722-0.93-1.438-2.359-2.749-4.135-2.732-0.867 0.002-1.459 0.478-1.855 1.019v-0.001zM21.918 12.657c-0.318-0.051-0.642-0.060-0.962-0.025l-0.884-1.486-1.309 0.777 0.68 1.143c-0.284 0.134-0.556 0.293-0.811 0.476-0.005-0.015-0.009-0.030-0.014-0.044-0.203-0.617-0.597-1.124-1.121-1.627l0.003-0.015c0.053-0.246 0.136-0.564 0.262-0.872 0.284-0.698 0.614-0.981 0.945-0.981h0.008c0.984-0.011 2.008 0.744 2.843 2.035 0.13 0.2 0.25 0.407 0.361 0.619l-0.001 0.001zM17.224 14.941c-0.251 0.006-0.51 0.034-0.762 0.089-0.206-0.344-0.481-0.641-0.809-0.872-0.602-0.423-1.426-0.632-2.318-0.299-0.082-0.047-0.164-0.093-0.247-0.138l2.463-2.414-1.067-1.088-2.922 2.864c-0.617-0.179-1.194-0.243-1.712-0.171 0.596-1.197 1.54-2.185 2.709-2.836 1.039-0.582 1.933-0.55 2.492-0.229 0.533 0.306 0.976 0.999 0.865 2.238l-0.034 0.383 0.288 0.255c0.626 0.554 0.887 0.912 1 1.254 0.079 0.24 0.105 0.53 0.054 0.965zM15.083 15.707c-0.651 0.545-1.087 1.309-1.341 2.135l-2.266-2.488-1.127 1.027 3.115 3.419c-0.004 0.908 0.113 1.838 0.282 2.678-1.348-0.463-2.518-1.337-3.344-2.499s-1.267-2.554-1.262-3.98c0-0.792 0.22-1.224 0.479-1.413 0.245-0.18 0.782-0.327 1.882 0.079 0.398 0.147 0.858 0.373 1.384 0.7l0.383 0.238 0.393-0.221c0.475-0.267 0.837-0.172 1.115 0.023 0.122 0.085 0.226 0.192 0.306 0.301zM16.428 22.843l5.556-6.123-1.128-1.024-2.234 2.462 0.005-0.773-1.524-0.011-0.017 2.476-1.892 2.085c-0.143-0.778-0.229-1.614-0.201-2.398 0.049-1.337 0.583-2.436 1.373-2.871 0.328-0.181 0.906-0.251 1.363-0.171l0.678 0.118 0.187-0.662c0.098-0.345 0.356-0.715 0.76-1.044 0.41-0.331 0.887-0.569 1.397-0.698 0.61-0.149 1.131-0.072 1.474 0.165 0.299 0.206 0.6 0.626 0.629 1.489v0.014l0.002 0.122c0.008 1.746-0.654 3.429-1.85 4.702s-2.834 2.039-4.577 2.141z"></path>
</symbol>

<symbol id="cart" viewBox="0 0 32 32">
<path d="M4.8 1.6c-0.424 0-0.831 0.169-1.131 0.469s-0.469 0.707-0.469 1.131c0 0.424 0.169 0.831 0.469 1.131s0.707 0.469 1.131 0.469h1.952l0.488 1.955c0.005 0.023 0.010 0.045 0.016 0.067l2.173 8.688-1.429 1.427c-2.016 2.016-0.589 5.462 2.262 5.462h13.737c0.424 0 0.831-0.169 1.131-0.469s0.469-0.707 0.469-1.131-0.169-0.831-0.469-1.131c-0.3-0.3-0.707-0.469-1.131-0.469h-13.738l1.6-1.6h10.537c0.297-0 0.588-0.083 0.841-0.239s0.457-0.38 0.59-0.646l4.8-9.6c0.122-0.244 0.18-0.515 0.167-0.787s-0.094-0.537-0.237-0.769c-0.143-0.232-0.343-0.423-0.581-0.556s-0.506-0.203-0.779-0.203h-17.152l-0.496-1.989c-0.087-0.346-0.286-0.653-0.568-0.873s-0.628-0.339-0.984-0.339h-3.2zM25.6 26.4c0 0.637-0.253 1.247-0.703 1.697s-1.060 0.703-1.697 0.703c-0.636 0-1.247-0.253-1.697-0.703s-0.703-1.060-0.703-1.697c0-0.636 0.253-1.247 0.703-1.697s1.060-0.703 1.697-0.703c0.637 0 1.247 0.253 1.697 0.703s0.703 1.061 0.703 1.697zM10.4 28.8c0.636 0 1.247-0.253 1.697-0.703s0.703-1.060 0.703-1.697c0-0.636-0.253-1.247-0.703-1.697s-1.061-0.703-1.697-0.703-1.247 0.253-1.697 0.703c-0.45 0.45-0.703 1.061-0.703 1.697s0.253 1.247 0.703 1.697 1.061 0.703 1.697 0.703z"></path>
</symbol>

<symbol id="popularCart" viewBox="0 0 32 32">
<path fill="#e8e8e2" style="fill: var(--color1, #e8e8e2)" d="M16 0c8.837 0 16 7.163 16 16s-7.163 16-16 16c-8.837 0-16-7.163-16-16s7.163-16 16-16z"></path>
<path fill="#6d8434" style="fill: var(--color2, #6d8434)" d="M9.279 7.36c-0.255 0-0.499 0.101-0.679 0.281s-0.281 0.424-0.281 0.679c0 0.255 0.101 0.499 0.281 0.679s0.424 0.281 0.679 0.281h1.171l0.293 1.173c0.003 0.014 0.006 0.027 0.010 0.040l1.304 5.213-0.857 0.856c-1.21 1.21-0.353 3.277 1.357 3.277h8.243c0.255 0 0.499-0.101 0.679-0.281s0.281-0.424 0.281-0.679c0-0.255-0.101-0.499-0.281-0.679s-0.424-0.281-0.679-0.281h-8.243l0.96-0.96h6.323c0.178-0 0.353-0.050 0.504-0.144s0.274-0.228 0.354-0.387l2.88-5.76c0.073-0.146 0.108-0.309 0.1-0.472s-0.056-0.322-0.142-0.461c-0.086-0.139-0.206-0.254-0.349-0.334s-0.304-0.122-0.467-0.122h-10.291l-0.298-1.193c-0.052-0.208-0.172-0.392-0.341-0.524s-0.377-0.203-0.591-0.203h-1.92zM21.759 22.24c0 0.382-0.152 0.748-0.422 1.018s-0.636 0.422-1.018 0.422c-0.382 0-0.748-0.152-1.018-0.422s-0.422-0.636-0.422-1.018c0-0.382 0.152-0.748 0.422-1.018s0.636-0.422 1.018-0.422c0.382 0 0.748 0.152 1.018 0.422s0.422 0.636 0.422 1.018zM12.639 23.68c0.382 0 0.748-0.152 1.018-0.422s0.422-0.636 0.422-1.018c0-0.382-0.152-0.748-0.422-1.018s-0.636-0.422-1.018-0.422c-0.382 0-0.748 0.152-1.018 0.422s-0.422 0.636-0.422 1.018c0 0.382 0.152 0.748 0.422 1.018s0.636 0.422 1.018 0.422z"></path>
</symbol>
<symbol id="check" viewBox="0 0 32 32">
<path  stroke-linejoin="round" stroke-linecap="round" stroke-miterlimit="4" stroke-width="3.5556" d="M26.667 8l-14.667 14.667-6.667-6.667"></path>
</symbol>
<symbol id="headerCart" viewBox="0 0 32 32">
<path d="M11.872 10.695c-0.156 0-0.306 0.062-0.417 0.173s-0.173 0.26-0.173 0.417c0 0.156 0.062 0.306 0.173 0.417s0.26 0.173 0.417 0.173h0.719l0.18 0.72c0.002 0.008 0.004 0.017 0.006 0.025l0.8 3.201-0.526 0.526c-0.743 0.743-0.217 2.012 0.834 2.012h5.061c0.156 0 0.306-0.062 0.417-0.173s0.173-0.26 0.173-0.417c0-0.156-0.062-0.306-0.173-0.417s-0.26-0.173-0.417-0.173h-5.061l0.589-0.589h3.882c0.109-0 0.217-0.031 0.31-0.088s0.168-0.14 0.217-0.238l1.768-3.537c0.045-0.090 0.066-0.19 0.062-0.29s-0.035-0.198-0.087-0.283c-0.053-0.085-0.127-0.156-0.214-0.205s-0.186-0.075-0.287-0.075h-6.319l-0.183-0.733c-0.032-0.127-0.106-0.241-0.209-0.322s-0.231-0.125-0.363-0.125h-1.179zM19.535 19.831c0 0.235-0.093 0.459-0.259 0.625s-0.391 0.259-0.625 0.259c-0.234 0-0.459-0.093-0.625-0.259s-0.259-0.391-0.259-0.625c0-0.234 0.093-0.459 0.259-0.625s0.391-0.259 0.625-0.259c0.235 0 0.459 0.093 0.625 0.259s0.259 0.391 0.259 0.625zM13.935 20.716c0.235 0 0.459-0.093 0.625-0.259s0.259-0.391 0.259-0.625c0-0.234-0.093-0.459-0.259-0.625s-0.391-0.259-0.625-0.259c-0.234 0-0.459 0.093-0.625 0.259s-0.259 0.391-0.259 0.625c0 0.235 0.093 0.459 0.259 0.625s0.391 0.259 0.625 0.259z"></path>
</symbol>
<symbol id="search" viewBox="0 0 32 32">
<path d="M20.667 18.667h-1.053l-0.373-0.36c1.352-1.568 2.095-3.57 2.093-5.64 0-1.714-0.508-3.39-1.46-4.815s-2.306-2.536-3.89-3.192c-1.584-0.656-3.326-0.828-5.007-0.493s-3.225 1.16-4.437 2.372c-1.212 1.212-2.037 2.756-2.372 4.437s-0.163 3.424 0.493 5.007c0.656 1.584 1.767 2.937 3.192 3.89s3.101 1.46 4.815 1.46c2.147 0 4.12-0.787 5.64-2.093l0.36 0.373v1.053l6.667 6.653 1.987-1.987-6.653-6.667zM12.667 18.667c-3.32 0-6-2.68-6-6s2.68-6 6-6c3.32 0 6 2.68 6 6s-2.68 6-6 6z"></path>
</symbol>
<symbol id="discount" viewBox="0 0 32 32">
<path fill="#6d8434" style="fill: var(--color1, #6d8434)" d="M32 16c0 8.837-7.163 16-16 16s-16-7.163-16-16c0-8.837 7.163-16 16-16s16 7.163 16 16z"></path>
<path fill="#fafafa" style="fill: var(--color2, #fafafa)" d="M26.947 20.862l-0.233 0.63-4.294-1.582 0.233-0.63 0.354 0.131 0.004-0.012c-0.15-0.24-0.274-0.626-0.099-1.1 0.29-0.786 1.118-1.143 2.127-0.771s1.406 1.18 1.116 1.966c-0.175 0.474-0.508 0.693-0.802 0.768l-0.004 0.012 1.597 0.589zM23.39 18.597c-0.191 0.516 0.118 0.992 0.797 1.242 0.685 0.252 1.223 0.089 1.413-0.427 0.204-0.552-0.192-1.032-0.792-1.254s-1.214-0.113-1.418 0.439z"></path>
<path fill="#fafafa" style="fill: var(--color2, #fafafa)" d="M25.093 22.529c0.11-0.15 0.327-0.229 0.513-0.093s0.171 0.363 0.061 0.512c-0.117 0.16-0.325 0.238-0.511 0.102s-0.18-0.361-0.062-0.521zM24.846 21.936l-0.397 0.542-2.64-1.93 0.397-0.542 2.64 1.93z"></path>
<path fill="#fafafa" style="fill: var(--color2, #fafafa)" d="M21.829 23.303c-0.554 0.274-1.144 0.585-1.641-0.017-0.4-0.483-0.233-1.126 0.38-1.63 0.815-0.671 1.48-0.58 1.945-0.068l-0.504 0.415c-0.249-0.251-0.559-0.385-1.093 0.054-0.361 0.297-0.367 0.601-0.237 0.758 0.261 0.316 0.583 0.092 1.027-0.124 0.478-0.236 1.087-0.604 1.559-0.032 0.342 0.414 0.25 1.046-0.382 1.567-0.687 0.565-1.319 0.464-1.716 0.053l0.504-0.415c0.198 0.169 0.464 0.29 0.869-0.044 0.311-0.256 0.381-0.513 0.235-0.691-0.212-0.257-0.51-0.044-0.945 0.173z"></path>
<path fill="#fafafa" style="fill: var(--color2, #fafafa)" d="M18.351 25.162c0.132 0.307 0.462 0.62 1.007 0.435 0.624-0.212 0.709-0.836 0.51-1.417s-0.641-1.026-1.271-0.812c-0.545 0.185-0.617 0.629-0.524 0.982l-0.636 0.216c-0.196-0.731 0.176-1.445 0.982-1.719 0.927-0.315 1.755 0.148 2.085 1.117s-0.042 1.839-0.963 2.152c-0.806 0.274-1.509-0.062-1.828-0.738l0.636-0.216z"></path>
<path fill="#fafafa" style="fill: var(--color2, #fafafa)" d="M15.606 23.245c1.022 0.063 1.599 0.809 1.537 1.825s-0.724 1.687-1.746 1.624c-1.022-0.062-1.599-0.809-1.537-1.825s0.724-1.687 1.746-1.624zM15.573 23.794c-0.639-0.039-1.002 0.445-1.042 1.116-0.041 0.677 0.261 1.196 0.9 1.235s1.001-0.439 1.042-1.116c0.041-0.671-0.261-1.196-0.9-1.235z"></path>
<path fill="#fafafa" style="fill: var(--color2, #fafafa)" d="M10.771 25.275l-0.605-0.293 1.431-2.941 0.605 0.293-0.185 0.38 0.012 0.006c0.267-0.155 0.685-0.237 1.191 0.009 0.547 0.265 0.825 0.791 0.497 1.465l-0.988 2.032-0.61-0.296 0.904-1.859c0.193-0.397 0.149-0.731-0.265-0.932-0.466-0.226-0.903-0.090-1.116 0.348l-0.871 1.79z"></path>
<path fill="#fafafa" style="fill: var(--color2, #fafafa)" d="M7.834 22.957c-0.406-0.453-0.464-1.045 0.095-1.543l1.685-1.504 0.453 0.505-1.542 1.377c-0.329 0.294-0.416 0.62-0.108 0.963 0.346 0.386 0.802 0.425 1.165 0.101l1.485-1.326 0.448 0.5-2.44 2.178-0.448-0.5 0.315-0.281-0.009-0.009c-0.306 0.042-0.724-0.040-1.1-0.46z"></path>
<path fill="#fafafa" style="fill: var(--color2, #fafafa)" d="M6.448 19.376l0.253 0.56 1.617-0.728c0.338-0.152 0.306-0.334 0.103-0.72l0.502-0.226c0.085 0.109 0.163 0.236 0.237 0.399 0.222 0.49 0.121 0.858-0.509 1.142l-1.669 0.751 0.195 0.432-0.502 0.226-0.195-0.432-0.94 0.423-0.28-0.618 0.94-0.423-0.253-0.56 0.502-0.226z"></path>
<path fill="#fafafa" style="fill: var(--color2, #fafafa)" d="M4.494 12.648l0.146-0.656 4.467 0.994-0.146 0.656-0.369-0.082-0.003 0.012c0.181 0.217 0.355 0.584 0.245 1.077-0.182 0.818-0.954 1.283-2.004 1.049s-1.552-0.981-1.37-1.8c0.11-0.493 0.411-0.754 0.692-0.869l0.003-0.012-1.662-0.37zM8.322 14.417c0.12-0.537-0.25-0.967-0.956-1.124-0.712-0.158-1.223 0.075-1.343 0.613-0.128 0.575 0.329 0.998 0.953 1.136s1.218-0.050 1.346-0.625z"></path>
<path fill="#fafafa" style="fill: var(--color2, #fafafa)" d="M6.103 10.748c-0.089 0.163-0.293 0.271-0.495 0.161s-0.218-0.336-0.129-0.5c0.095-0.174 0.29-0.279 0.493-0.17s0.226 0.334 0.132 0.508zM6.428 11.303l0.321-0.59 2.875 1.559-0.321 0.59-2.875-1.559z"></path>
<path fill="#fafafa" style="fill: var(--color2, #fafafa)" d="M9.241 9.534c0.514-0.344 1.057-0.73 1.629-0.198 0.459 0.427 0.379 1.086-0.163 1.666-0.72 0.772-1.391 0.769-1.919 0.322l0.445-0.477c0.28 0.216 0.605 0.309 1.076-0.197 0.319-0.342 0.285-0.644 0.135-0.783-0.3-0.279-0.59-0.015-1.002 0.257-0.443 0.296-0.998 0.741-1.542 0.236-0.394-0.366-0.385-1.004 0.174-1.603 0.607-0.65 1.247-0.633 1.694-0.278l-0.445 0.477c-0.218-0.142-0.498-0.227-0.856 0.157-0.275 0.295-0.311 0.559-0.142 0.715 0.244 0.227 0.511-0.023 0.914-0.295z"></path>
<path fill="#fafafa" style="fill: var(--color2, #fafafa)" d="M12.397 7.25c-0.172-0.286-0.542-0.552-1.057-0.295-0.59 0.295-0.589 0.924-0.314 1.473s0.774 0.93 1.37 0.632c0.515-0.257 0.526-0.706 0.386-1.044l0.601-0.3c0.293 0.698 0.022 1.456-0.74 1.836-0.876 0.438-1.759 0.091-2.218-0.824s-0.208-1.828 0.662-2.262c0.761-0.38 1.504-0.143 1.911 0.483l-0.601 0.3z"></path>
<path fill="#fafafa" style="fill: var(--color2, #fafafa)" d="M15.372 8.765c-1.021 0.074-1.693-0.589-1.767-1.604s0.492-1.768 1.513-1.843c1.021-0.074 1.693 0.589 1.768 1.604s-0.492 1.768-1.513 1.843zM15.331 8.217c0.638-0.046 0.933-0.575 0.884-1.245-0.050-0.677-0.418-1.15-1.057-1.104s-0.934 0.568-0.884 1.245c0.049 0.67 0.418 1.15 1.057 1.104z"></path>
<path fill="#fafafa" style="fill: var(--color2, #fafafa)" d="M19.919 6.105l0.638 0.21-1.026 3.105-0.638-0.21 0.133-0.401-0.012-0.004c-0.244 0.189-0.647 0.326-1.182 0.149-0.577-0.191-0.923-0.675-0.688-1.386l0.709-2.145 0.644 0.213-0.649 1.963c-0.139 0.419-0.051 0.745 0.387 0.889 0.492 0.162 0.907-0.031 1.059-0.493l0.625-1.89z"></path>
<path fill="#fafafa" style="fill: var(--color2, #fafafa)" d="M23.143 8.004c0.462 0.396 0.597 0.975 0.108 1.543l-1.473 1.713-0.515-0.441 1.348-1.567c0.288-0.335 0.331-0.669-0.019-0.969-0.394-0.337-0.851-0.316-1.168 0.053l-1.298 1.509-0.51-0.437 2.132-2.48 0.51 0.437-0.275 0.32 0.010 0.008c0.298-0.082 0.723-0.055 1.15 0.311z"></path>
<path fill="#fafafa" style="fill: var(--color2, #fafafa)" d="M24.984 11.342l-0.326-0.521-1.504 0.939c-0.315 0.196-0.258 0.372-0.005 0.727l-0.467 0.291c-0.099-0.097-0.193-0.211-0.288-0.363-0.285-0.456-0.236-0.834 0.351-1.2l1.553-0.969-0.252-0.401 0.467-0.291 0.252 0.401 0.874-0.546 0.36 0.575-0.874 0.546 0.326 0.521-0.467 0.291z"></path>
<path fill="#fafafa" style="fill: var(--color2, #fafafa)" d="M17.556 14.756c-2.8 0.622-3.453 2.542-4.1 4.15l0.588 0.205 0.296-0.716c0.149 0.053 0.305 0.093 0.417 0.093 3.422 0 4.356-5.289 4.356-5.289-0.311 0.622-2.489 0.7-4.044 1.011s-2.178 1.633-2.178 2.256 0.544 1.167 0.544 1.167c1.011-2.878 4.122-2.878 4.122-2.878z"></path>
</symbol>

<symbol id="singleArrow" viewBox="0 0 32 32">
<path fill="none" stroke-linejoin="round" stroke-linecap="round" stroke-miterlimit="4" stroke-width="2" d="M13.333 10.667l5.333 5.333-5.333 5.333"></path>
</symbol>

<symbol id="doubleArrow" viewBox="0 0 32 32">
<path fill="none" stroke-linejoin="round" stroke-linecap="round" stroke-miterlimit="4" stroke-width="2" d="M16 21.333l5.333-5.333-5.333-5.333"></path>
<path fill="none" stroke-linejoin="round" stroke-linecap="round" stroke-miterlimit="4" stroke-width="2" d="M10.667 21.333l5.333-5.333-5.333-5.333"></path>
</symbol>

<symbol id="close" viewBox="0 0 32 32">
<path d="M25 9.093l-2.093-2.093-6.907 6.907-6.907-6.907-2.093 2.093 6.907 6.907-6.907 6.907 2.093 2.093 6.907-6.907 6.907 6.907 2.093-2.093-6.907-6.907 6.907-6.907z"></path>
</symbol>

<symbol id="chevronDown" viewBox="0 0 32 32">
<path stroke-linejoin="round" stroke-linecap="round" stroke-miterlimit="4" stroke-width="3.2" d="M8 12l8 8 8-8"></path>
</symbol>

<symbol id="youtube" viewBox="0 0 32 32">
<path fill="#e8e8e2" style="fill: var(--color1, #e8e8e2)" opacity="0.8" d="M24.24 6c-1.36-0.080-4.16-0.16-8.4-0.16h-0.56c-4.080 0-6.8 0.080-8.16 0.24-1.84 0.16-3.12 0.64-3.84 1.28-0.64 0.56-1.12 1.6-1.28 2.96-0.080 0.88-0.16 2.72-0.16 5.52v0.4c0 2.64 0.080 4.48 0.24 5.36 0.24 1.28 0.64 2.24 1.44 2.8 0.8 0.64 2.16 1.040 4.080 1.2 1.36 0.080 4.16 0.16 8.4 0.16h0.56c4.080 0 6.8-0.080 8.16-0.24 1.84-0.16 3.12-0.64 3.84-1.28 0.64-0.56 1.12-1.6 1.28-2.96 0.080-0.88 0.16-2.72 0.16-5.52v-0.4c0-2.64-0.080-4.48-0.24-5.36-0.24-1.28-0.64-2.24-1.44-2.8-0.8-0.64-2.16-1.040-4.080-1.2zM21.12 15.84l-8.8 5.28v-10.56l8.8 5.28z"></path>
</symbol>

<symbol id="instagram" viewBox="0 0 32 32">
<path fill="#e8e8e2" style="fill: var(--color1, #e8e8e2)" opacity="0.8" d="M28.718 10.756c-0.016-1.074-0.215-2.14-0.596-3.145-0.667-1.716-2.024-3.073-3.743-3.737-0.994-0.373-2.044-0.573-3.108-0.596-1.368-0.061-1.801-0.078-5.273-0.078s-3.916 0-5.274 0.078c-1.062 0.023-2.113 0.223-3.106 0.596-1.719 0.664-3.078 2.021-3.743 3.737-0.374 0.992-0.576 2.041-0.596 3.101-0.061 1.367-0.080 1.8-0.080 5.265s0 3.909 0.080 5.265c0.021 1.062 0.222 2.109 0.596 3.104 0.667 1.714 2.024 3.071 3.744 3.735 0.989 0.386 2.040 0.605 3.106 0.639 1.369 0.061 1.803 0.080 5.274 0.080s3.916 0 5.274-0.080c1.062-0.021 2.112-0.221 3.108-0.595 1.719-0.666 3.076-2.022 3.743-3.737 0.374-0.994 0.574-2.041 0.596-3.104 0.061-1.365 0.080-1.798 0.080-5.265-0.003-3.466-0.003-3.906-0.082-5.264zM15.99 22.531c-3.631 0-6.572-2.936-6.572-6.561s2.941-6.561 6.572-6.561c3.628 0 6.572 2.936 6.572 6.561s-2.944 6.561-6.572 6.561zM22.824 10.696c-0.849 0-1.532-0.684-1.532-1.53s0.684-1.53 1.532-1.53c0.846 0 1.531 0.684 1.531 1.53s-0.685 1.53-1.531 1.53z"></path>
<path fill="#e8e8e2" style="fill: var(--color1, #e8e8e2)" opacity="0.8" d="M15.992 19.976c2.211 0 4.004-1.793 4.004-4.004s-1.793-4.004-4.004-4.004c-2.211 0-4.004 1.793-4.004 4.004s1.793 4.004 4.004 4.004z"></path>
</symbol>

<symbol id="facebook" viewBox="0 0 32 32">
<path fill="#e8e8e2" style="fill: var(--color1, #e8e8e2)" opacity="0.8" d="M19.52 4.64c0.24 0 0.48 0 0.96 0v3.6c-0.24 0-0.72 0-1.2 0s-0.96 0-1.2 0.24c-0.24 0.24-0.24 0.48-0.24 1.040 0 0.48 0 0.8 0 1.28h2.64v3.040h-2.64v13.2h-4.080v-13.28h-2.16v-3.040h2.16v-1.040c0-1.76 0.24-3.040 0.72-3.6 0.72-1.040 2.16-1.52 4.32-1.52 0.24 0.080 0.48 0.080 0.72 0.080z"></path>
</symbol>
</defs>
</svg>
