<svg aria-hidden="true" style="position: absolute; width: 0; height: 0; overflow: hidden;" version="1.1" xmlns="http://www.w3.org/2000/svg" xmlns:xlink="http://www.w3.org/1999/xlink">
<defs>
<symbol id="logoHeader" viewBox="0 0 32 32">
<path fill="#6d8434" d="M32 16c0 8.837-7.163 16-16 16s-16-7.163-16-16c0-8.837 7.163-16 16-16s16 7.163 16 16z"></path>
<path fill="#e8e8e2" d="M16.847 9.499c-0.265-0.402-0.62-0.736-1.038-0.975-1.149-0.659-2.629-0.543-3.995 0.222-2.536 1.421-4.197 4.092-4.197 7.254 0 4.221 3.055 7.629 7.045 8.274 0.436 0.070 0.882 0.107 1.336 0.107 1.107 0.004 2.204-0.212 3.227-0.636s1.951-1.047 2.731-1.833 1.396-1.719 1.812-2.745c0.416-1.026 0.624-2.125 0.611-3.232-0.017-1.472-0.608-3.278-1.541-4.722-0.93-1.438-2.359-2.749-4.135-2.732-0.867 0.002-1.459 0.478-1.855 1.019v-0.001zM21.918 12.657c-0.318-0.051-0.642-0.060-0.962-0.025l-0.884-1.486-1.309 0.777 0.68 1.143c-0.284 0.134-0.556 0.293-0.811 0.476-0.005-0.015-0.009-0.030-0.014-0.044-0.203-0.617-0.597-1.124-1.121-1.627l0.003-0.015c0.053-0.246 0.136-0.564 0.262-0.872 0.284-0.698 0.614-0.981 0.945-0.981h0.008c0.984-0.011 2.008 0.744 2.843 2.035 0.13 0.2 0.25 0.407 0.361 0.619l-0.001 0.001zM17.224 14.941c-0.251 0.006-0.51 0.034-0.762 0.089-0.206-0.344-0.481-0.641-0.809-0.872-0.602-0.423-1.426-0.632-2.318-0.299-0.082-0.047-0.164-0.093-0.247-0.138l2.463-2.414-1.067-1.088-2.922 2.864c-0.617-0.179-1.194-0.243-1.712-0.171 0.596-1.197 1.54-2.185 2.709-2.836 1.039-0.582 1.933-0.55 2.492-0.229 0.533 0.306 0.976 0.999 0.865 2.238l-0.034 0.383 0.288 0.255c0.626 0.554 0.887 0.912 1 1.254 0.079 0.24 0.105 0.53 0.054 0.965zM15.083 15.707c-0.651 0.545-1.087 1.309-1.341 2.135l-2.266-2.488-1.127 1.027 3.115 3.419c-0.004 0.908 0.113 1.838 0.282 2.678-1.348-0.463-2.518-1.337-3.344-2.499s-1.267-2.554-1.262-3.98c0-0.792 0.22-1.224 0.479-1.413 0.245-0.18 0.782-0.327 1.882 0.079 0.398 0.147 0.858 0.373 1.384 0.7l0.383 0.238 0.393-0.221c0.475-0.267 0.837-0.172 1.115 0.023 0.122 0.085 0.226 0.192 0.306 0.301zM16.428 22.843l5.556-6.123-1.128-1.024-2.234 2.462 0.005-0.773-1.524-0.011-0.017 2.476-1.892 2.085c-0.143-0.778-0.229-1.614-0.201-2.398 0.049-1.337 0.583-2.436 1.373-2.871 0.328-0.181 0.906-0.251 1.363-0.171l0.678 0.118 0.187-0.662c0.098-0.345 0.356-0.715 0.76-1.044 0.41-0.331 0.887-0.569 1.397-0.698 0.61-0.149 1.131-0.072 1.474 0.165 0.299 0.206 0.6 0.626 0.629 1.489v0.014l0.002 0.122c0.008 1.746-0.654 3.429-1.85 4.702s-2.834 2.039-4.577 2.141z"></path>
</symbol>
<symbol id="logoFooter" viewBox="0 0 32 32">
<path fill="#e8e8e2" d="M32 16c0 8.837-7.163 16-16 16s-16-7.163-16-16c0-8.837 7.163-16 16-16s16 7.163 16 16z"></path>
<path  fill="#6d8434" d="M16.847 9.499c-0.265-0.402-0.62-0.736-1.038-0.975-1.149-0.659-2.629-0.543-3.995 0.222-2.536 1.421-4.197 4.092-4.197 7.254 0 4.221 3.055 7.629 7.045 8.274 0.436 0.070 0.882 0.107 1.336 0.107 1.107 0.004 2.204-0.212 3.227-0.636s1.951-1.047 2.731-1.833 1.396-1.719 1.812-2.745c0.416-1.026 0.624-2.125 0.611-3.232-0.017-1.472-0.608-3.278-1.541-4.722-0.93-1.438-2.359-2.749-4.135-2.732-0.867 0.002-1.459 0.478-1.855 1.019v-0.001zM21.918 12.657c-0.318-0.051-0.642-0.060-0.962-0.025l-0.884-1.486-1.309 0.777 0.68 1.143c-0.284 0.134-0.556 0.293-0.811 0.476-0.005-0.015-0.009-0.030-0.014-0.044-0.203-0.617-0.597-1.124-1.121-1.627l0.003-0.015c0.053-0.246 0.136-0.564 0.262-0.872 0.284-0.698 0.614-0.981 0.945-0.981h0.008c0.984-0.011 2.008 0.744 2.843 2.035 0.13 0.2 0.25 0.407 0.361 0.619l-0.001 0.001zM17.224 14.941c-0.251 0.006-0.51 0.034-0.762 0.089-0.206-0.344-0.481-0.641-0.809-0.872-0.602-0.423-1.426-0.632-2.318-0.299-0.082-0.047-0.164-0.093-0.247-0.138l2.463-2.414-1.067-1.088-2.922 2.864c-0.617-0.179-1.194-0.243-1.712-0.171 0.596-1.197 1.54-2.185 2.709-2.836 1.039-0.582 1.933-0.55 2.492-0.229 0.533 0.306 0.976 0.999 0.865 2.238l-0.034 0.383 0.288 0.255c0.626 0.554 0.887 0.912 1 1.254 0.079 0.24 0.105 0.53 0.054 0.965zM15.083 15.707c-0.651 0.545-1.087 1.309-1.341 2.135l-2.266-2.488-1.127 1.027 3.115 3.419c-0.004 0.908 0.113 1.838 0.282 2.678-1.348-0.463-2.518-1.337-3.344-2.499s-1.267-2.554-1.262-3.98c0-0.792 0.22-1.224 0.479-1.413 0.245-0.18 0.782-0.327 1.882 0.079 0.398 0.147 0.858 0.373 1.384 0.7l0.383 0.238 0.393-0.221c0.475-0.267 0.837-0.172 1.115 0.023 0.122 0.085 0.226 0.192 0.306 0.301zM16.428 22.843l5.556-6.123-1.128-1.024-2.234 2.462 0.005-0.773-1.524-0.011-0.017 2.476-1.892 2.085c-0.143-0.778-0.229-1.614-0.201-2.398 0.049-1.337 0.583-2.436 1.373-2.871 0.328-0.181 0.906-0.251 1.363-0.171l0.678 0.118 0.187-0.662c0.098-0.345 0.356-0.715 0.76-1.044 0.41-0.331 0.887-0.569 1.397-0.698 0.61-0.149 1.131-0.072 1.474 0.165 0.299 0.206 0.6 0.626 0.629 1.489v0.014l0.002 0.122c0.008 1.746-0.654 3.429-1.85 4.702s-2.834 2.039-4.577 2.141z"></path>
</symbol>
<symbol id="cart" viewBox="0 0 32 32">
<path fill="#6d8434"  d="M16 0c8.837 0 16 7.163 16 16s-7.163 16-16 16c-8.837 0-16-7.163-16-16s7.163-16 16-16z"></path>
<path fill="#e8e8e2"  d="M11.872 10.695c-0.156 0-0.306 0.062-0.417 0.173s-0.173 0.26-0.173 0.417c0 0.156 0.062 0.306 0.173 0.417s0.26 0.173 0.417 0.173h0.719l0.18 0.72c0.002 0.008 0.004 0.017 0.006 0.025l0.8 3.201-0.526 0.526c-0.743 0.743-0.217 2.012 0.834 2.012h5.061c0.156 0 0.306-0.062 0.417-0.173s0.173-0.26 0.173-0.417c0-0.156-0.062-0.306-0.173-0.417s-0.26-0.173-0.417-0.173h-5.061l0.589-0.589h3.882c0.109-0 0.217-0.031 0.31-0.088s0.168-0.14 0.217-0.238l1.768-3.537c0.045-0.090 0.066-0.19 0.062-0.29s-0.035-0.198-0.087-0.283c-0.053-0.085-0.127-0.156-0.214-0.205s-0.186-0.075-0.287-0.075h-6.319l-0.183-0.733c-0.032-0.127-0.106-0.241-0.209-0.322s-0.231-0.125-0.363-0.125h-1.179zM19.535 19.831c0 0.235-0.093 0.459-0.259 0.625s-0.391 0.259-0.625 0.259c-0.234 0-0.459-0.093-0.625-0.259s-0.259-0.391-0.259-0.625c0-0.234 0.093-0.459 0.259-0.625s0.391-0.259 0.625-0.259c0.235 0 0.459 0.093 0.625 0.259s0.259 0.391 0.259 0.625zM13.935 20.716c0.235 0 0.459-0.093 0.625-0.259s0.259-0.391 0.259-0.625c0-0.234-0.093-0.459-0.259-0.625s-0.391-0.259-0.625-0.259c-0.234 0-0.459 0.093-0.625 0.259s-0.259 0.391-0.259 0.625c0 0.235 0.093 0.459 0.259 0.625s0.391 0.259 0.625 0.259z"></path>
</symbol>
<symbol id="headerCart" viewBox="0 0 32 32">
<path d="M11.872 10.695c-0.156 0-0.306 0.062-0.417 0.173s-0.173 0.26-0.173 0.417c0 0.156 0.062 0.306 0.173 0.417s0.26 0.173 0.417 0.173h0.719l0.18 0.72c0.002 0.008 0.004 0.017 0.006 0.025l0.8 3.201-0.526 0.526c-0.743 0.743-0.217 2.012 0.834 2.012h5.061c0.156 0 0.306-0.062 0.417-0.173s0.173-0.26 0.173-0.417c0-0.156-0.062-0.306-0.173-0.417s-0.26-0.173-0.417-0.173h-5.061l0.589-0.589h3.882c0.109-0 0.217-0.031 0.31-0.088s0.168-0.14 0.217-0.238l1.768-3.537c0.045-0.090 0.066-0.19 0.062-0.29s-0.035-0.198-0.087-0.283c-0.053-0.085-0.127-0.156-0.214-0.205s-0.186-0.075-0.287-0.075h-6.319l-0.183-0.733c-0.032-0.127-0.106-0.241-0.209-0.322s-0.231-0.125-0.363-0.125h-1.179zM19.535 19.831c0 0.235-0.093 0.459-0.259 0.625s-0.391 0.259-0.625 0.259c-0.234 0-0.459-0.093-0.625-0.259s-0.259-0.391-0.259-0.625c0-0.234 0.093-0.459 0.259-0.625s0.391-0.259 0.625-0.259c0.235 0 0.459 0.093 0.625 0.259s0.259 0.391 0.259 0.625zM13.935 20.716c0.235 0 0.459-0.093 0.625-0.259s0.259-0.391 0.259-0.625c0-0.234-0.093-0.459-0.259-0.625s-0.391-0.259-0.625-0.259c-0.234 0-0.459 0.093-0.625 0.259s-0.259 0.391-0.259 0.625c0 0.235 0.093 0.459 0.259 0.625s0.391 0.259 0.625 0.259z"></path>
</symbol>

</defs>
</svg>
